<svg version="1.0" xmlns="http://www.w3.org/2000/svg" viewBox="0 0 315 72"><path d="M215.3 29.7c3.7.2 9.6.2 13 0 3.4-.2.4-.3-6.8-.3-7.1 0-9.9.1-6.2.3zm60 0c4.3.2 11 .2 15 0 4-.1.5-.3-7.8-.3-8.2 0-11.5.2-7.2.3z" stroke-width="4.1" fill="#FF3E00" stroke="#FF3E00" fill-opacity=".11" stroke-opacity=".11"/><path d="M217.3 46.7c2.6.2 6.8.2 9.5 0 2.6-.2.4-.3-4.8-.3s-7.4.1-4.7.3z" fill="#FF3D00" stroke="#FF3D00" fill-opacity=".23" stroke-opacity=".23" stroke-width="4.1"/><path d="M278.4 52c0 8.5.2 12 .3 7.8.2-4.3.2-11.3 0-15.6-.1-4.2-.3-.7-.3 7.8z" fill="#FF3C00" stroke="#FF3C00" fill-opacity=".07" stroke-opacity=".07" stroke-width="4.1"/><path d="M17.6 31.6c-2.2 2.2-2.4 34-.2 37 1.2 1.5 1.8 1.7 3.3.8 1.4-.9 1.9-2.7 2.1-8.8l.3-7.6H43v8c0 6.3.3 8.2 1.5 8.6.8.4 2.2.1 3-.6 1.2-1 1.5-4.5 1.5-19 0-18.5-.5-20.9-4.4-19.4-1.3.5-1.6 2.1-1.6 8.5V47H23v-7.5c0-6.3-.3-7.6-1.9-8.5-1.5-.7-2.3-.6-3.5.6zm150.5 12.9c-4.6 8-8.8 14.4-9.3 14.3-.4-.2-3-4.1-5.7-8.8-3.9-6.9-5.3-8.5-7.2-8.5-1.5 0-2.5.7-2.7 1.8-.4 1.8 11.8 23.6 14.4 25.8 2.2 1.8 3.9-.3 14.4-18.5 9.2-16 10.4-19.8 6.5-20.4-1.6-.2-3.6 2.5-10.4 14.3zm39-13.1c-.8.9-1.1 7-.9 19.7l.3 18.4 14.5.2c15.3.3 18.3-.3 16.4-3.4-.9-1.5-3-1.9-13-2.3l-11.9-.5v-10l11-.5c10.9-.5 11-.5 11-3s-.1-2.5-11-3l-11-.5v-10l12.3-.3c10.2-.2 12.4-.5 12.9-1.9 1.3-3.3-2.4-4.3-16.3-4.3-10 0-13.4.3-14.3 1.4zm58.9.1c-2.5 3-.4 4.4 6.7 4.7l6.8.3.3 16.3c.2 13.3.5 16.4 1.7 16.9.9.3 2.2 0 3-.7 1.2-1 1.5-4.3 1.5-17.1V36.1l6.7-.3c5.7-.3 6.8-.6 7.1-2.2.2-1-.2-2.2-1-2.7-.7-.5-8.1-.9-16.4-.9-12.2 0-15.4.3-16.4 1.5zM92.7 39.2C85.2 53 79 65.9 79 67.5c0 2.2 2.7 3 4.6 1.4.8-.7 2.4-3 3.5-5.1L89 60h20l2.5 5.1c2.6 5.1 4.8 6 6.7 2.9 1.4-2.2-16.3-36.4-19-36.8-1.6-.2-3 1.5-6.5 8zM102 47c1.6 3.3 3 6.2 3 6.5 0 .3-2.7.5-6 .5s-6-.4-6-1c0-1 5.2-12 5.7-12 .1 0 1.6 2.7 3.3 6z" stroke-width="4.1" fill="#F30" stroke="#F30"/><path d="M205.2 38c0 1.4.2 1.9.5 1.2.2-.6.2-1.8 0-2.5-.3-.6-.5-.1-.5 1.3zm.1 14c0 4.7.2 6.6.4 4.2.2-2.3.2-6.1 0-8.5-.2-2.3-.4-.4-.4 4.3zm-.1 12.5c0 1.6.2 2.2.5 1.2.2-.9.2-2.3 0-3-.3-.6-.5.1-.5 1.8z" stroke-width="4.1" fill="#FF3D00" stroke="#FF3D00" fill-opacity=".2" stroke-opacity=".2"/><path d="M49.3 40c0 3.6.2 5 .4 3.2.2-1.7.2-4.7 0-6.5-.2-1.7-.4-.3-.4 3.3zm-.1 14.5c0 1.6.2 2.2.5 1.2.2-.9.2-2.3 0-3-.3-.6-.5.1-.5 1.8zm0 7.5c0 1.9.2 2.7.5 1.7.2-.9.2-2.5 0-3.5-.3-.9-.5-.1-.5 1.8zm169.1 1.7c3.1.2 8.3.2 11.5 0 3.1-.2.5-.3-5.8-.3s-8.9.1-5.7.3z" stroke-width="4.1" fill="#FF3E00" stroke="#FF3E00" fill-opacity=".16" stroke-opacity=".16"/><path d="M25.8 53.7c1.8.2 4.5.2 6 0s0-.4-3.3-.4-4.5.2-2.7.4zm13 0c.7.3 1.6.2 1.9-.1.4-.3-.2-.6-1.3-.5-1.1 0-1.4.3-.6.6zm176.5 0c1.5.2 3.7.2 5 0 1.2-.2 0-.4-2.8-.4-2.7 0-3.8.2-2.2.4z" stroke-width="4.1" fill="#FF3E00" stroke="#FF3E00" fill-opacity=".19" stroke-opacity=".19"/><path d="M96.3 52.7c1.5.2 3.9.2 5.5 0 1.5-.2.2-.4-2.8-.4s-4.3.2-2.7.4z" fill="#FF4000" stroke="#FF4000" fill-opacity=".05" stroke-opacity=".05" stroke-width="4.1"/><path d="M42.2 36c0 1.4.2 1.9.5 1.2.2-.6.2-1.8 0-2.5-.3-.6-.5-.1-.5 1.3zm.1 7.5c0 2.2.2 3 .4 1.7.2-1.2.2-3 0-4-.3-.9-.5.1-.4 2.3zm0 16c0 3.3.2 4.5.4 2.7.2-1.8.2-4.5 0-6s-.4 0-.4 3.3z" stroke-width="4.1" fill="#FF3C00" stroke="#FF3C00" fill-opacity=".27" stroke-opacity=".27"/><path d="M218.3 36.7c3.1.2 8.3.2 11.5 0 3.1-.2.5-.3-5.8-.3s-8.9.1-5.7.3zm52 0c1.5.2 3.9.2 5.5 0 1.5-.2.2-.4-2.8-.4s-4.3.2-2.7.4zm19 0c1.5.2 3.9.2 5.5 0 1.5-.2.2-.4-2.8-.4s-4.3.2-2.7.4z" stroke-width="4.1" fill="#FF3D00" stroke="#FF3D00" fill-opacity=".36" stroke-opacity=".36"/><path d="M279.4 52c0 8.5.2 12 .3 7.8.2-4.3.2-11.3 0-15.6-.1-4.2-.3-.7-.3 7.8z" fill="#FF3C00" stroke="#FF3C00" fill-opacity=".48" stroke-opacity=".48" stroke-width="4.1"/><path d="M212.3 41.5c0 2.7.2 3.8.4 2.2.2-1.5.2-3.7 0-5-.2-1.2-.4 0-.4 2.8zm0 17c0 2.7.2 3.8.4 2.2.2-1.5.2-3.7 0-5-.2-1.2-.4 0-.4 2.8z" stroke-width="4.1" fill="#FF3B00" stroke="#FF3B00" fill-opacity=".44" stroke-opacity=".44"/><path d="M286.4 52c0 8.5.2 12 .3 7.8.2-4.3.2-11.3 0-15.6-.1-4.2-.3-.7-.3 7.8z" fill="#FF3E00" stroke="#FF3E00" fill-opacity=".18" stroke-opacity=".18" stroke-width="4.1"/><path d="M34.8 53.7c.6.2 1.8.2 2.5 0 .6-.3.1-.5-1.3-.5-1.4 0-1.9.2-1.2.5zm191 0c.6.2 1.8.2 2.5 0 .6-.3.1-.5-1.3-.5-1.4 0-1.9.2-1.2.5z" stroke-width="4.1" fill="#FF3900" stroke="#FF3900" fill-opacity=".19" stroke-opacity=".19"/><path d="M95.8 53.7c1.7.2 4.7.2 6.5 0 1.7-.2.3-.4-3.3-.4-3.6 0-5 .2-3.2.4z" fill="#FF3E00" stroke="#FF3E00" fill-opacity=".42" stroke-opacity=".42" stroke-width="4.1"/><path d="M215.3 70.7c3.7.2 9.7.2 13.5 0 3.7-.2.6-.3-6.8-.3-7.4 0-10.5.1-6.7.3z" fill="#FF4000" stroke="#FF4000" fill-opacity=".06" stroke-opacity=".06" stroke-width="4.1"/></svg>